<svg width="60" height="44.9" viewBox="0 0 151 113" fill="none" xmlns="http://www.w3.org/2000/svg">
<path d="M59.1007 112.037C54.4917 112.373 47.9459 112.167 42.5464 112.167C45.7088 103.261 48.6139 94.995 51.5774 86.7498C61.4187 59.3688 71.3579 32.0224 81.0437 4.58655C82.3374 0.921785 83.9826 -0.209876 87.8154 0.193712C105.086 2.01226 121.638 5.76996 135.784 16.6132C148.151 26.0925 153.385 39.4918 148.961 51.9861C147.391 56.4211 144.897 60.9347 141.671 64.3085C126.98 79.6711 107.861 84.3942 86.7213 86.2766C88.7303 80.5779 91.451 74.3088 93.6007 69.5367C103.817 67.4917 117.17 63.1255 125.527 56.6072C136.263 48.2338 136.444 38.6557 125.867 30.1849C117.186 23.2325 106.822 20.1316 96.0616 18.3814C95.0027 18.2091 92.8988 20.2581 92.368 21.6817C85.8616 39.1316 79.5557 56.6562 73.2037 74.1635C69.0648 85.571 63.4018 100.259 59.1007 112.037Z" fill="#E23172"/>
<path d="M58.6007 17.0367C48.0458 19.1151 34.2069 22.9816 25.4618 29.5823C14.0704 38.1803 13.9509 48.4468 25.5499 56.8743C30.2079 60.2587 35.5814 62.6582 41.2747 65.87C39.5859 70.5173 37.7453 75.5822 35.8271 80.8606C25.1987 77.3242 15.8929 72.3814 8.61388 64.2116C-3.13983 51.0195 -2.86011 34.2647 9.42292 21.5159C20.2769 10.2505 34.2145 5.04081 49.1711 2.13552C53.9992 1.19767 58.9293 0.785119 64.8022 0C63.0005 5.18201 60.1676 12.4707 58.6007 17.0367Z" fill="#E23272"/>
</svg>
